<svg height="512pt" viewBox="0 0 512.00026 512" width="512pt" xmlns="http://www.w3.org/2000/svg"><path d="m500.757812 261.621094c0 138.28125-112.097656 250.378906-250.378906 250.378906-50.65625 0-97.796875-15.042969-137.203125-40.90625-14.628906-9.601562-26.152343-21.71875-38.433593-34.089844-11.859376-11.941406-24.5625-24.050781-33.835938-38.179687-25.863281-39.402344-40.90625-86.546875-40.90625-137.203125 0-138.28125 112.097656-250.378906 250.378906-250.378906s250.378906 112.097656 250.378906 250.378906zm0 0" fill="#ffe266"/><path d="m293.507812 167.90625c-42.636718-42.632812-42.636718-112.007812 0-154.644531 3.992188-3.988281 10.460938-3.988281 14.453126 0 3.988281 3.992187 3.988281 10.464843 0 14.453125-34.667969 34.667968-34.667969 91.074218 0 125.738281 3.988281 3.992187 3.988281 10.460937 0 14.453125-3.992188 3.992188-10.460938 3.992188-14.453126 0zm-178.382812-53.5625c-4.878906 2.832031-6.542969 9.089844-3.707031 13.96875.457031.789062 1 1.492188 1.613281 2.105469 3.199219 3.195312 8.257812 3.980469 12.355469 1.605469 42.398437-24.613282 96.921875-10.136719 121.527343 32.261718 2.832032 4.886719 9.085938 6.542969 13.96875 3.710938 4.882813-2.832032 6.542969-9.085938 3.707032-13.96875-30.261719-52.148438-97.316406-69.949219-149.464844-39.683594zm-67.3125 82.46875c-3.988281 3.992188-3.988281 10.460938 0 14.453125 3.992188 3.992187 10.460938 3.992187 14.453125 0 34.664063-34.667969 91.070313-34.667969 125.738281 0 3.992188 3.992187 10.460938 3.992187 14.453125 0 3.992188-3.992187 3.992188-10.460937 0-14.453125-42.636719-42.636719-112.007812-42.636719-154.644531 0zm450.921875 7.226562c-3.988281-3.992187-10.460937-3.992187-14.449219 0-34.667968 34.664063-91.074218 34.664063-125.738281 0-3.992187-3.992187-10.464844-3.992187-14.453125 0-3.992188 3.988282-3.992188 10.460938 0 14.453126 42.632812 42.632812 112.007812 42.632812 154.640625 0 3.992187-3.992188 3.992187-10.460938 0-14.453126zm-140.761719 43.371094c-4.878906-2.835937-11.136718-1.171875-13.96875 3.707032-2.832031 4.878906-1.175781 11.132812 3.707032 13.96875 42.402343 24.605468 56.875 79.125 32.265624 121.527343-2.375 4.09375-1.589843 9.15625 1.605469 12.355469.613281.613281 1.316407 1.15625 2.105469 1.613281 4.878906 2.832031 11.136719 1.171875 13.96875-3.710937 30.265625-52.144532 12.464844-119.199219-39.683594-149.460938zm-57.238281 62.132813c-3.988281 3.992187-3.988281 10.460937 0 14.453125 34.667969 34.664062 34.667969 91.070312 0 125.738281-3.988281 3.988281-3.988281 10.460937 0 14.453125 3.992187 3.988281 10.460937 3.988281 14.453125 0 42.636719-42.636719 42.636719-112.011719 0-154.644531-3.992188-3.992188-10.460938-3.992188-14.453125 0zm0 0" fill="#025f80"/><path d="m345.539062 332.667969c-45.898437 45.894531-120.308593 45.894531-166.207031 0-45.898437-45.898438-45.894531-120.308594 0-166.207031 36.304688-36.304688 90.453125-43.882813 134.21875-22.75 1.929688-7.550782 5.84375-14.699219 11.753907-20.609376 17.558593-17.558593 46.027343-17.558593 63.589843 0 17.558594 17.5625 17.558594 46.03125 0 63.59375-5.910156 5.910157-13.058593 9.820313-20.609375 11.753907 21.136719 43.761719 13.558594 97.910156-22.746094 134.21875zm0 0" fill="#fff5f5"/><path d="m173.292969 326.15625c-39.757813-46.171875-37.746094-115.910156 6.039062-159.695312 36.308594-36.304688 90.457031-43.886719 134.21875-22.75 2.046875-8.007813 6.324219-15.5625 12.847657-21.667969 17.519531-16.394531 45.316406-15.972657 62.355468.917969 8.195313 8.121093 12.597656 18.609374 13.226563 29.277343-17.371094-10.9375-40.589844-8.855469-55.71875 6.273438-1.996094 1.992187-3.761719 4.128906-5.300781 6.371093-5.050782 7.363282-14.363282 10.40625-22.902344 7.777344-40.273438-12.394531-85.898438-2.664062-117.769532 29.210938-33.605468 33.601562-42.601562 82.496094-26.996093 124.285156zm0 0" fill="#c0fbff"/><path d="m280.933594 158.804688c5.984375 5.984374 5.984375 15.691406 0 21.679687-5.988282 5.984375-15.695313 5.984375-21.679688 0-5.988281-5.988281-5.988281-15.691406 0-21.679687 5.984375-5.984376 15.691406-5.984376 21.679688 0zm14.449218 36.132812c-5.984374 5.984375-5.984374 15.691406 0 21.675781 5.988282 5.988281 15.695313 5.988281 21.679688 0 5.988281-5.984375 5.988281-15.691406 0-21.675781-5.984375-5.988281-15.691406-5.988281-21.679688 0zm57.8125 36.128906c-5.988281-5.984375-15.691406-5.984375-21.679687 0-5.984375 5.988282-5.984375 15.695313 0 21.679688 5.988281 5.988281 15.691406 5.988281 21.679687 0 5.988282-5.984375 5.988282-15.691406 0-21.679688zm0 0" fill="#92dff4"/><path d="m135.972656 101.425781c9.980469 9.976563 9.980469 26.152344 0 36.128907-9.976562 9.976562-26.152344 9.976562-36.128906 0-9.976562-9.976563-9.976562-26.152344 0-36.128907 9.976562-9.980469 26.152344-9.980469 36.128906 0zm180.660156-57.8125c9.976563-9.976562 9.976563-26.152343 0-36.128906-9.976562-9.980469-26.152343-9.980469-36.132812 0-9.976562 9.976563-9.976562 26.152344 0 36.128906 9.980469 9.976563 26.15625 9.976563 36.132812 0zm-275.324218 143.804688c-9.976563 9.976562-9.976563 26.152343 0 36.132812 9.976562 9.976563 26.15625 9.976563 36.132812 0 9.976563-9.980469 9.976563-26.15625 0-36.132812-9.976562-9.976563-26.15625-9.976563-36.132812 0zm333.132812 188.605469c-9.976562 9.980468-9.976562 26.15625 0 36.132812 9.980469 9.976562 26.15625 9.976562 36.132813 0 9.976562-9.976562 9.976562-26.152344 0-36.132812-9.976563-9.976563-26.152344-9.976563-36.132813 0zm130.074219-180.65625c-9.976563-9.976563-26.152344-9.976563-36.128906 0-9.976563 9.976562-9.976563 26.152343 0 36.128906 9.976562 9.980468 26.152343 9.980468 36.128906 0 9.980469-9.976563 9.980469-26.152344 0-36.128906zm-217.511719 237.746093c-9.976562 9.976563-9.976562 26.152344 0 36.128907 9.980469 9.980468 26.15625 9.980468 36.132813 0 9.976562-9.976563 9.976562-26.152344 0-36.128907-9.976563-9.976562-26.152344-9.976562-36.132813 0zm0 0" fill="#08c"/><path d="m302.179688 43.613281c-9.976563-9.976562-9.976563-26.152343 0-36.128906 2.160156-2.160156 4.613281-3.851563 7.226562-5.078125 2.617188 1.226562 5.066406 2.917969 7.226562 5.078125 9.976563 9.976563 9.976563 26.152344 0 36.128906-2.160156 2.160157-4.609374 3.851563-7.226562 5.074219-2.613281-1.222656-5.066406-2.914062-7.226562-5.074219zm-231.964844 138.730469c-2.617188 1.222656-5.066406 2.914062-7.226563 5.074219-9.976562 9.976562-9.976562 26.152343 0 36.132812 2.160157 2.160157 4.609375 3.847657 7.226563 5.074219 2.613281-1.226562 5.066406-2.917969 7.226562-5.074219 9.976563-9.980469 9.976563-26.15625 0-36.132812-2.160156-2.160157-4.609375-3.851563-7.226562-5.074219zm58.535156-85.996094c-2.617188 1.226563-5.070312 2.917969-7.226562 5.078125-9.980469 9.976563-9.980469 26.152344 0 36.128907 2.160156 2.160156 4.609374 3.851562 7.226562 5.074218 2.613281-1.222656 5.0625-2.914062 7.222656-5.074218 9.980469-9.976563 9.980469-26.152344 0-36.128907-2.15625-2.160156-4.609375-3.851562-7.222656-5.078125zm375.765625 99.019532c-2.160156-2.160157-4.609375-3.851563-7.226563-5.074219-2.613281 1.222656-5.0625 2.914062-7.222656 5.074219-9.980468 9.976562-9.980468 26.152343 0 36.128906 2.160156 2.164062 4.609375 3.851562 7.222656 5.078125 2.617188-1.226563 5.070313-2.917969 7.226563-5.078125 9.980469-9.976563 9.980469-26.152344 0-36.128906zm-188.605469 232.671874c-2.613281 1.222657-5.066406 2.914063-7.226562 5.074219-9.976563 9.976563-9.976563 26.152344 0 36.128907 2.160156 2.160156 4.613281 3.851562 7.226562 5.078124 2.613282-1.226562 5.066406-2.917968 7.226563-5.078124 9.976562-9.976563 9.976562-26.152344 0-36.128907-2.160157-2.160156-4.613281-3.851562-7.226563-5.074219zm87.4375-57.089843c-2.613281 1.226562-5.066406 2.914062-7.226562 5.074219-9.976563 9.980468-9.976563 26.15625 0 36.132812 2.160156 2.160156 4.613281 3.851562 7.226562 5.074219 2.617188-1.222657 5.066406-2.914063 7.226563-5.074219 9.976562-9.976562 9.976562-26.152344 0-36.132812-2.160157-2.160157-4.609375-3.847657-7.226563-5.074219zm0 0" fill="#7ed4f2"/><path d="m296.695312 310.445312-7.203124 7.207032c-20.457032 20.457031-50.808594 24.976562-75.648438 13.578125l-83.648438 83.648437c-.6875.6875-1.800781.6875-2.488281 0l-30.585937-30.585937c-.683594-.6875-.683594-1.800781 0-2.488281l83.648437-83.648438c-11.398437-24.839844-6.878906-55.191406 13.578125-75.648438l7.203125-7.203124c17.792969-17.789063 43.066407-23.523438 65.6875-17.214844 4.433594 1.234375 5.902344 6.789062 2.648438 10.046875l-41.558594 41.554687c-9.585937 9.589844-9.378906 25.265625.632813 34.589844 9.53125 8.878906 24.542968 8.195312 33.753906-1.015625l41.152344-41.152344c3.253906-3.253906 8.808593-1.785156 10.046874 2.648438 6.304688 22.621093.570313 47.894531-17.21875 65.683593zm0 0" fill="#08c"/><path d="m296.695312 310.445312-6.492187 6.492188c-20.546875 20.546875-51.246094 25.550781-76.304687 14.238281l-36.304688 36.304688c-4.679688 4.675781-12.265625 4.675781-16.941406 0-4.675782-4.679688-4.675782-12.261719 0-16.941407l20.648437-20.648437c6.679688-6.675781 7.859375-17.03125 2.976563-25.117187-5.230469-8.660157-8.332032-18.246094-9.300782-28.007813-1.367187-13.769531 9.617188-25.65625 23.453126-25.65625 11.523437 0 21.246093 8.359375 23.21875 19.714844.832031 4.785156 3.125 9.371093 6.871093 13.035156 9.347657 9.144531 24.957031 8.640625 34.203125-.601563l41.140625-41.144531c3.253907-3.253906 8.808594-1.789062 10.042969 2.648438 6.3125 22.621093.582031 47.894531-17.210938 65.683593zm0 0" fill="#50b0d6"/><path d="m165.71875 429.746094c-3.992188 3.988281-10.460938 3.988281-14.453125 0l-3.898437-3.898438c-.402344 7.269532-3.375 14.421875-8.929688 19.976563l-25.253906 25.253906c-28.753906-18.875-53.386719-43.507813-72.261719-72.261719l25.253906-25.257812c5.554688-5.550782 12.707031-8.523438 19.976563-8.925782l-3.898438-3.898437c-3.992187-3.992187-3.992187-10.460937 0-14.453125 3.992188-3.992188 10.460938-3.992188 14.453125 0l69.011719 69.011719c3.992188 3.992187 3.992188 10.460937 0 14.453125zm0 0" fill="#ff895a"/><path d="m119.652344 369.226562c-3.992188-3.992187-10.464844-3.992187-14.453125 0-2.65625 2.65625-3.546875 6.410157-2.667969 9.800782.925781 3.558594-.019531 7.335937-2.617188 9.9375l-37.753906 37.753906c-7.707031-8.78125-14.820312-18.09375-21.253906-27.894531l25.269531-25.265625c5.554688-5.550782 12.710938-8.523438 19.976563-8.925782l-3.648438-3.652343c-3.851562-3.847657-4.304687-10.113281-.714844-14.203125 3.9375-4.480469 10.769532-4.648438 14.917969-.496094zm0 0" fill="#ff6466"/><path d="m117.84375 439.679688-20.273438 20.273437c-5.421874-4.183594-10.664062-8.582031-15.71875-13.183594l21.539063-21.542969c3.992187-3.988281 10.460937-3.988281 14.453125 0 3.992188 3.992188 3.992188 10.464844 0 14.453126zm-31.074219-45.523438c-3.988281-3.992188-10.460937-3.992188-14.449219 0l-20.28125 20.277344c4.183594 5.421875 8.585938 10.660156 13.191407 15.714844l21.539062-21.539063c3.992188-3.992187 3.992188-10.464844 0-14.453125zm0 0" fill="#ff393a"/></svg>