<svg height="512pt" viewBox="-6 0 512 512.00102" width="512pt" xmlns="http://www.w3.org/2000/svg"><path d="m500.757812 250.378906c0 138.28125-112.097656 250.378906-250.378906 250.378906s-250.378906-112.097656-250.378906-250.378906 112.097656-250.378906 250.378906-250.378906 250.378906 112.097656 250.378906 250.378906zm0 0" fill="#97f0f2"/><path d="m101.175781 113.894531h20.4375v283.644531h-20.4375zm398.125 163.511719c.726563-6.738281 1.195313-13.550781 1.371094-20.4375h-98.933594v-143.074219l-9.308593-20.441406h-260.597657v20.441406h249.464844v143.074219h-249.464844v20.4375h249.46875v143.074219h-249.46875v20.4375h296.367188v-20.4375h-26.460938v-143.074219zm0 0" fill="#84deea"/><path d="m162.492188 430.699219c0 18.414062-9.765626 34.550781-24.371094 43.542969-28.851563-14.492188-54.492188-34.382813-75.632813-58.371094 6.359375-20.976563 25.847657-36.269532 48.90625-36.269532 28.21875 0 51.097657 22.878907 51.097657 51.097657zm229.027343-194.171875c-16.933593 0-30.660156 13.726562-30.660156 30.660156 0 16.929688 13.726563 30.660156 30.660156 30.660156 16.933594 0 30.65625-13.730468 30.65625-30.660156 0-16.933594-13.726562-30.660156-30.65625-30.660156zm0 0" fill="#50b0d6"/><path d="m193.148438 164.992188h-163.511719c-8.464844 0-15.328125-6.863282-15.328125-15.328126v-91.976562c0-8.46875 6.863281-15.332031 15.328125-15.332031h163.511719c8.46875 0 15.332031 6.863281 15.332031 15.332031v91.976562c0 8.464844-6.863281 15.328126-15.332031 15.328126zm0 0" fill="#0069a3"/><path d="m193.148438 164.992188h-132.851563c-8.46875 0-15.332031-6.863282-15.332031-15.328126v-91.976562c0-8.46875 6.863281-15.332031 15.332031-15.332031h132.851563c8.46875 0 15.332031 6.863281 15.332031 15.332031v91.976562c0 8.464844-6.863281 15.328126-15.332031 15.328126zm0 0" fill="#08c"/><path d="m182.929688 80.734375v10.21875c0 2.824219-2.289063 5.109375-5.109376 5.109375h-132.855468c-2.820313 0-5.109375-2.285156-5.109375-5.109375v-10.21875c0-2.820313 2.289062-5.109375 5.109375-5.109375h132.855468c2.820313 0 5.109376 2.289062 5.109376 5.109375zm-40.878907 30.660156h-61.316406c-2.820313 0-5.109375 2.285157-5.109375 5.109375v10.21875c0 2.820313 2.289062 5.109375 5.109375 5.109375h61.316406c2.824219 0 5.113281-2.289062 5.113281-5.109375v-10.21875c0-2.824218-2.289062-5.109375-5.113281-5.109375zm0 0" fill="#7ed4f2"/><path d="m147.164062 328.503906h-71.539062c-33.863281 0-61.316406-27.453125-61.316406-61.316406s27.453125-61.316406 61.316406-61.316406h71.539062c33.863282 0 61.316407 27.453125 61.316407 61.316406s-27.453125 61.316406-61.316407 61.316406zm0 0" fill="#ff393a"/><path d="m147.164062 328.503906h-35.769531c-33.867187 0-61.316406-27.453125-61.316406-61.316406s27.449219-61.316406 61.316406-61.316406h35.769531c33.863282 0 61.316407 27.453125 61.316407 61.316406s-27.453125 61.316406-61.316407 61.316406zm0 0" fill="#ff6466"/><path d="m182.929688 249.355469v10.222656c0 2.820313-2.289063 5.109375-5.109376 5.109375h-132.855468c-2.820313 0-5.109375-2.289062-5.109375-5.109375v-10.222656c0-2.820313 2.289062-5.109375 5.109375-5.109375h132.855468c2.820313 0 5.109376 2.289062 5.109376 5.109375zm-40.878907 30.660156h-61.316406c-2.820313 0-5.109375 2.289063-5.109375 5.109375v10.21875c0 2.824219 2.289062 5.113281 5.109375 5.113281h61.316406c2.824219 0 5.113281-2.289062 5.113281-5.113281v-10.21875c0-2.820312-2.289062-5.109375-5.113281-5.109375zm0 0" fill="#ff8d7d"/><path d="m481.960938 114.511719-79.601563 79.605469c-5.988281 5.984374-15.691406 5.984374-21.679687 0l-79.601563-79.605469c-5.988281-5.984375-5.988281-15.691407 0-21.675781l79.601563-79.605469c5.984374-5.984375 15.691406-5.984375 21.679687 0l79.601563 79.605469c5.988281 5.984374 5.988281 15.691406 0 21.675781zm0 0" fill="#f5c02c"/><path d="m481.960938 92.835938c5.988281 5.984374 5.988281 15.691406 0 21.675781l-68.46875 68.472656-68.472657-68.472656c-5.984375-5.984375-5.984375-15.691407 0-21.675781l68.472657-68.472657zm0 0" fill="#ffcf48"/><path d="m361.253906 103.675781c0 7.164063-5.808594 12.96875-12.972656 12.96875-7.160156 0-12.96875-5.804687-12.96875-12.96875 0-7.164062 5.804688-12.972656 12.96875-12.972656s12.972656 5.808594 12.972656 12.972656zm30.265625-12.972656c-7.164062 0-12.972656 5.808594-12.972656 12.96875 0 7.164063 5.808594 12.972656 12.972656 12.972656 7.164063 0 12.96875-5.808593 12.96875-12.972656s-5.804687-12.96875-12.96875-12.96875zm43.234375 0c-7.164062 0-12.96875 5.808594-12.96875 12.96875 0 7.164063 5.808594 12.972656 12.96875 12.972656 7.164063 0 12.972656-5.808593 12.972656-12.972656s-5.808593-12.96875-12.972656-12.96875zm0 0" fill="#fff1c5"/><path d="m391.519531 363.925781c40.890625 0 74.039063 33.148438 74.039063 74.039063 0 40.886718-33.148438 74.035156-74.039063 74.035156s-74.039062-33.144531-74.039062-74.035156 33.148437-74.039063 74.039062-74.039063zm0 0" fill="#02cc69"/><path d="m465.554688 437.960938c0 40.890624-33.144532 74.039062-74.035157 74.039062-1.722656 0-3.421875-.078125-5.113281-.195312-25.90625-14.4375-43.4375-42.078126-43.4375-73.839844 0-31.765625 17.53125-59.40625 43.433594-73.84375 1.691406-.113282 3.394531-.195313 5.113281-.195313 40.894531 0 74.039063 33.148438 74.039063 74.035157zm0 0" fill="#54d680"/><path d="m458.128906 415.238281-56.609375 56.613281c-2.996093 2.992188-6.917969 4.488282-10.839843 4.488282-3.925782 0-7.847657-1.496094-10.839844-4.488282l-28.90625-28.90625c-5.984375-5.988281-5.984375-15.691406 0-21.679687 5.988281-5.984375 15.695312-5.984375 21.679687 0l18.066407 18.066406 45.773437-45.769531c5.984375-5.988281 15.691406-5.988281 21.675781 0 5.988282 5.984375 5.984375 15.691406 0 21.675781zm0 0" fill="#c0f9cf"/><path d="m458.128906 393.5625c5.984375 5.984375 5.984375 15.691406 0 21.675781l-44.773437 44.773438c-2.992188 2.992187-6.914063 4.492187-10.839844 4.492187-3.921875 0-7.84375-1.496094-10.835937-4.492187l-28.90625-28.90625c-3.800782-3.800781-5.179688-9.097657-4.152344-13.992188 4.894531-1.027343 10.191406.351563 13.992187 4.152344l18.066407 18.066406 45.769531-45.769531c5.988281-5.988281 15.691406-5.988281 21.679687 0zm0 0" fill="#fff5f5"/></svg>