
<svg width="273px" height="290px" viewBox="0 0 273 290" version="1.1" xmlns="http://www.w3.org/2000/svg" xmlns:xlink="http://www.w3.org/1999/xlink">
    <g id="Page-2" stroke="none" stroke-width="1" fill="none" fill-rule="evenodd">
        <g id="Page_4" transform="translate(-84.000000, -177.000000)">
            <g id="Group-2" transform="translate(84.000000, 177.000000)">
                <ellipse id="Oval" fill="#F6F5F6" cx="136.5" cy="152.5" rx="136.5" ry="137.5"></ellipse>
                <g id="bars-chart" transform="translate(11.000000, 0.000000)" fill-rule="nonzero">
                    <path d="M144.714147,238 L123.285853,238 C120.919118,238 119,236.065504 119,233.679804 L119,134.320196 C119,131.934496 120.919118,130 123.285853,130 L144.714147,130 C147.080882,130 149,131.934496 149,134.320196 L149,233.679804 C149,236.065504 147.080882,238 144.714147,238 Z" id="Path" fill="#FFD782"></path>
                    <path d="M144.714147,238 L123.285853,238 C120.919118,238 119,236.067396 119,233.68403 L119,160.31597 C119,157.932604 120.919118,156 123.285853,156 L144.714147,156 C147.080882,156 149,157.932604 149,160.31597 L149,233.68403 C149,236.067396 147.080882,238 144.714147,238 Z" id="Path" fill="#FFC36E"></path>
                    <path d="M187.714147,238 L166.285853,238 C163.919118,238 162,236.063005 162,233.674225 L162,56.3257751 C162,53.9369947 163.919118,52 166.285853,52 L187.714147,52 C190.080882,52 192,53.9369947 192,56.3257751 L192,233.674225 C192,236.063005 190.080882,238 187.714147,238 Z" id="Path" fill="#C3E678"></path>
                    <path d="M187.714147,238 L166.285853,238 C163.919118,238 162,236.064351 162,233.67723 L162,108.32277 C162,105.935649 163.919118,104 166.285853,104 L187.714147,104 C190.080882,104 192,105.935649 192,108.32277 L192,233.67723 C192,236.064351 190.080882,238 187.714147,238 Z" id="Path" fill="#A5D76E"></path>
                    <path d="M58.714147,238 L37.285853,238 C34.9191184,238 33,236.067396 33,233.68403 L33,160.31597 C33,157.932604 34.9191184,156 37.285853,156 L58.714147,156 C61.0808816,156 63,157.932604 63,160.31597 L63,233.68403 C63,236.067396 61.0808816,238 58.714147,238 Z" id="Path" fill="#00D2FF"></path>
                    <path d="M230.714147,238 L209.285853,238 C206.919118,238 205,236.062577 205,233.673269 L205,30.3267307 C205,27.9374226 206.919118,26 209.285853,26 L230.714147,26 C233.080882,26 235,27.9374226 235,30.3267307 L235,233.673759 C234.999515,236.062577 233.080882,238 230.714147,238 Z" id="Path" fill="#9BE6D2"></path>
                    <path d="M230.714147,238 L209.285853,238 C206.919118,238 205,236.063566 205,233.675477 L205,82.3245229 C205,79.936434 206.919118,78 209.285853,78 L230.714147,78 C233.080882,78 235,79.936434 235,82.3245229 L235,233.675967 C234.999515,236.063566 233.080882,238 230.714147,238 Z" id="Path" fill="#78D2BE"></path>
                    <path d="M100.714147,238 L79.285853,238 C76.9191184,238 75,236.064351 75,233.67723 L75,108.32277 C75,105.935649 76.9191184,104 79.285853,104 L100.714147,104 C103.080882,104 105,105.935649 105,108.32277 L105,233.67723 C105,236.064351 103.080882,238 100.714147,238 Z" id="Path" fill="#FF6464"></path>
                    <path d="M100.714147,238 L79.285853,238 C76.9191184,238 75,236.065504 75,233.679804 L75,134.320196 C75,131.934496 76.9191184,130 79.285853,130 L100.714147,130 C103.080882,130 105,131.934496 105,134.320196 L105,233.679804 C105,236.065504 103.080882,238 100.714147,238 Z" id="Path" fill="#D2555A"></path>
                    <path d="M58.714147,238 L37.285853,238 C34.9191184,238 33,236.071018 33,233.69212 L33,186.30788 C33,183.928982 34.9191184,182 37.285853,182 L58.714147,182 C61.0808816,182 63,183.928982 63,186.30788 L63,233.69212 C63,236.071018 61.0808816,238 58.714147,238 Z" id="Path" fill="#18BDF6"></path>
                    <g id="Group" transform="translate(0.000000, 26.000000)" fill="#D7DEED">
                        <path d="M12.7510741,190.611633 L4.25051852,190.611633 C1.9032963,190.611633 0,188.675677 0,186.288177 L0,186.288177 C0,183.900677 1.9032963,181.964721 4.25051852,181.964721 L12.7510741,181.964721 L12.7510741,190.611633 Z" id="Path"></path>
                        <path d="M12.7510741,164.671874 L4.25051852,164.671874 C1.9032963,164.671874 0,162.735918 0,160.348418 L0,160.348418 C0,157.960918 1.9032963,156.024962 4.25051852,156.024962 L12.7510741,156.024962 L12.7510741,164.671874 Z" id="Path"></path>
                        <path d="M12.7510741,138.732605 L4.25051852,138.732605 C1.9032963,138.732605 0,136.796649 0,134.409149 L0,134.409149 C0,132.021649 1.9032963,130.085692 4.25051852,130.085692 L12.7510741,130.085692 L12.7510741,138.732605 Z" id="Path"></path>
                        <path d="M12.7510741,112.792846 L4.25051852,112.792846 C1.9032963,112.792846 0,110.85689 0,108.46939 L0,108.46939 C0,106.08189 1.9032963,104.145933 4.25051852,104.145933 L12.7510741,104.145933 L12.7510741,112.792846 Z" id="Path"></path>
                        <path d="M12.7510741,86.8535769 L4.25051852,86.8535769 C1.9032963,86.8535769 0,84.9176205 0,82.5301205 L0,82.5301205 C0,80.1426205 1.9032963,78.2066641 4.25051852,78.2066641 L12.7510741,78.2066641 L12.7510741,86.8535769 Z" id="Path"></path>
                        <path d="M12.7510741,60.9138179 L4.25051852,60.9138179 C1.9032963,60.9138179 0,58.9778615 0,56.5903615 L0,56.5903615 C0,54.2028615 1.9032963,52.2669051 4.25051852,52.2669051 L12.7510741,52.2669051 L12.7510741,60.9138179 Z" id="Path"></path>
                        <path d="M12.7510741,34.9745487 L4.25051852,34.9745487 C1.9032963,34.9745487 0,33.0385923 0,30.6510923 L0,30.6510923 C0,28.2635923 1.9032963,26.3276359 4.25051852,26.3276359 L12.7510741,26.3276359 L12.7510741,34.9745487 Z" id="Path"></path>
                        <path d="M12.7510741,9.03478974 L4.25051852,9.03478974 C1.9032963,9.03478974 0,7.09932308 0,4.71182308 L0,4.71182308 C0,2.32432308 1.9032963,0.388366667 4.25051852,0.388366667 L12.7510741,0.388366667 L12.7510741,9.03478974 Z" id="Path"></path>
                    </g>
                    <path d="M12.5,238 L12.5,238 C10.0150091,238 8,236.062247 8,233.672531 L8,4.32746881 C8,1.93775308 10.0150091,0 12.5,0 L12.5,0 C14.9849909,0 17,1.93775308 17,4.32746881 L17,233.672531 C16.9994903,236.062247 14.9849909,238 12.5,238 Z" id="Path" fill="#C7CFE2"></path>
                    <path d="M0,238.5 L0,238.5 C0,236.015009 1.93017201,234 4.31053846,234 L245.689462,234 C248.069828,234 250,236.015009 250,238.5 L250,238.5 C250,240.984991 248.069828,243 245.689462,243 L4.31053846,243 C1.93017201,242.99949 0,240.984991 0,238.5 Z" id="Path" fill="#AFB9D2"></path>
                </g>
            </g>
        </g>
    </g>
</svg>