
<svg width="152px" height="146px" viewBox="0 0 152 146" version="1.1" xmlns="http://www.w3.org/2000/svg" xmlns:xlink="http://www.w3.org/1999/xlink">
    <g id="Page-2" stroke="none" stroke-width="1" fill="none" fill-rule="evenodd">
        <g id="Page_2" transform="translate(-28.000000, -354.000000)">
            <g id="Attack" transform="translate(28.000000, 354.000000)">
                <ellipse id="Oval" fill="#F3B241" cx="76" cy="73" rx="76" ry="73"></ellipse>
                <g id="sword" transform="translate(30.000000, 28.000000)" fill-rule="nonzero">
                    <polygon id="Path" fill="#E2E2E7" points="6.06417001 25.1717627 54.3668232 66 66 54.3499623 25.1739616 5.95830896 0 0"></polygon>
                    <polygon id="Path" fill="#BABAC0" points="6.05144489 25.1717627 54.2527393 66 60 60.2323063 0 0"></polygon>
                    <polygon id="Path" fill="#68544F" points="59.7632062 71.2910333 65.2200318 69.0621692 63.6060509 75.1338783 71.4721726 83 83 71.4721727 75.1338781 63.606051 69.2928387 65.4507015 71.2910332 59.7639135 65.5271197 54 54 65.5271196"></polygon>
                    <polygon id="Path" fill="#3E322E" points="59.7046501 71.4100003 65.1060326 69.2037822 63.5084503 75.2138007 71.2946496 83 77 77.2946498 59.7046501 60 54 65.7046499"></polygon>
                    <path d="M73.1966688,87.8006898 C75.3395312,89.9460412 78.1454899,91.0377499 80.9909185,90.9989656 C83.8356294,91.0384683 86.6415879,89.9460412 88.7851681,87.8006898 C93.0716106,83.5099872 93.0716106,76.4892944 88.7851681,72.1985918 C86.6415879,70.0539586 83.8356294,68.9615317 80.9909185,69.0010344 C78.1454899,68.9615317 75.3395312,70.0539586 73.1966688,72.1985918 C71.0530887,74.343943 69.9615635,77.1522202 70.0010335,80 C69.9615635,82.8470614 71.0530887,85.6553386 73.1966688,87.8006898 L73.1966688,87.8006898 Z" id="Path" fill="#B35F49"></path>
                    <polygon id="Path" fill="#B35F49" points="64.7496547 75 61 71.2496547 72.2496547 60 76 63.7496548"></polygon>
                    <polygon id="Path" fill="#99503D" points="70 69.0001473 63.9997055 75 60 70.9998527 66.0002945 65"></polygon>
                    <path d="M70.0009903,80.4691591 C69.96317,83.194969 71.0090725,85.8836464 73.0630569,87.9376307 C75.1163536,89.9909275 77.805031,91.0368298 80.5315285,90.9990097 C83.2573384,91.0368298 85.9460156,89.9909275 88,87.9376307 L73.0623691,73 C71.0090725,75.0539843 69.96317,77.7426616 70.0009903,80.4691591 L70.0009903,80.4691591 Z" id="Path" fill="#99503D"></path>
                    <polygon id="Path" fill="#B35F49" points="51.8336862 70 48 66.1670197 67.1670197 47 71 50.8336862"></polygon>
                    <polygon id="Path" fill="#99503D" points="52.999579 71 49 67.000421 58.9996844 57 63 61.0003156"></polygon>
                    <polygon id="Path" fill="#ECECF1" points="85.93583 25.1717627 37.6331768 66 26 54.3499623 66.8260384 5.95830896 92 0"></polygon>
                    <polygon id="Path" fill="#D3D3D8" points="85.9485551 25.1717627 37.7472607 66 32 60.2323063 92 0"></polygon>
                    <polygon id="Path" fill="#68544F" points="31.2367938 71.2910333 25.7799682 69.0621692 27.3939491 75.1338783 19.5278274 83 8 71.4721727 15.8661219 63.606051 21.7071613 65.4507015 19.7089668 59.7639135 25.4728803 54 37 65.5271196"></polygon>
                    <polygon id="Path" fill="#53433F" points="32.2953499 71.4100003 26.8939674 69.2037822 28.4915497 75.2138007 20.7053504 83 15 77.2946498 32.2953499 60 38 65.7046499"></polygon>
                    <path d="M18.8033312,87.8006898 C16.6604688,89.9460412 13.8545101,91.0377499 11.0090815,90.9989656 C8.16437059,91.0384683 5.3584121,89.9460412 3.21483193,87.8006898 C-1.07161064,83.5099872 -1.07161064,76.4892944 3.21483193,72.1985918 C5.3584121,70.0539586 8.16437059,68.9615317 11.0090815,69.0010344 C13.8545101,68.9615317 16.6604688,70.0539586 18.8033312,72.1985918 C20.9469113,74.343943 22.0384365,77.1522202 21.9989665,80 C22.0384365,82.8470614 20.9469113,85.6553386 18.8033312,87.8006898 L18.8033312,87.8006898 Z" id="Path" fill="#C6715A"></path>
                    <polygon id="Path" fill="#C6715A" points="16 63.7503453 19.7501725 60 31 71.2503453 27.2498273 75"></polygon>
                    <polygon id="Path" fill="#B35F49" points="25.9997055 65 32 70.9998528 27.9995582 75 22 69.0001474"></polygon>
                    <path d="M21.9990097,80.4691591 C22.03683,83.194969 20.9909275,85.8836464 18.9369431,87.9376307 C16.8836464,89.9909275 14.194969,91.0368298 11.4684715,90.9990097 C8.74266164,91.0368298 6.05398445,89.9909275 4,87.9376307 L18.9376309,73 C20.9909275,75.0539843 22.03683,77.7426616 21.9990097,80.4691591 Z" id="Path" fill="#B35F49"></path>
                    <polygon id="Path" fill="#C6715A" points="21 50.8329805 24.8336863 47 44 66.1663137 40.1670197 70"></polygon>
                    <polygon id="Path" fill="#B35F49" points="29 60.9995792 33.0003157 57 43 66.9996843 39.000421 71"></polygon>
                </g>
            </g>
        </g>
    </g>
</svg>