<?xml version="1.0" encoding="iso-8859-1"?>
<!-- Generator: Adobe Illustrator 19.0.0, SVG Export Plug-In . SVG Version: 6.00 Build 0)  -->
<svg version="1.1" id="Capa_1" xmlns="http://www.w3.org/2000/svg" xmlns:xlink="http://www.w3.org/1999/xlink" x="0px" y="0px"
	 viewBox="0 0 512 512" style="enable-background:new 0 0 512 512;" xml:space="preserve">
<path style="fill:#7C8287;" d="M322.391,25.469l-56.012,58.016c-0.06,0.06-0.13,0.12-0.19,0.18c-0.06,0.06-0.12,0.13-0.18,0.19
	c-0.13,0.13-0.27,0.24-0.411,0.361c-0.18,0.17-0.361,0.331-0.551,0.491c-0.21,0.16-0.411,0.311-0.621,0.461
	c-0.2,0.15-0.391,0.291-0.601,0.431c-0.21,0.14-0.441,0.27-0.661,0.401c-0.2,0.12-0.401,0.24-0.611,0.351
	c-0.24,0.13-0.481,0.23-0.721,0.341c-0.2,0.1-0.401,0.2-0.611,0.281c-0.26,0.1-0.521,0.19-0.791,0.281
	c-0.19,0.07-0.381,0.14-0.581,0.2c-0.291,0.09-0.581,0.15-0.882,0.22c-0.17,0.04-0.341,0.09-0.521,0.12
	c-0.341,0.07-0.681,0.11-1.022,0.16c-0.14,0.01-0.271,0.04-0.411,0.05c-0.481,0.05-0.962,0.07-1.443,0.07s-0.962-0.02-1.443-0.07
	c-0.13-0.01-0.26-0.04-0.391-0.05c-0.351-0.05-0.701-0.09-1.042-0.16c-0.17-0.03-0.331-0.08-0.491-0.11
	c-0.311-0.07-0.621-0.14-0.922-0.23c-0.18-0.06-0.361-0.12-0.541-0.19c-0.281-0.09-0.561-0.18-0.832-0.291
	c-0.19-0.08-0.381-0.17-0.571-0.26c-0.25-0.12-0.511-0.23-0.761-0.361c-0.19-0.11-0.391-0.22-0.581-0.341
	c-0.23-0.13-0.461-0.27-0.691-0.421c-0.19-0.12-0.381-0.27-0.571-0.411c-0.22-0.15-0.431-0.311-0.641-0.481
	c-0.19-0.15-0.361-0.311-0.551-0.471c-0.13-0.13-0.281-0.24-0.411-0.371c-0.06-0.06-0.12-0.13-0.18-0.19
	c-0.06-0.06-0.13-0.12-0.19-0.18l-56.012-58.016c-5.77-5.971-5.6-15.488,0.371-21.249c5.971-5.771,15.488-5.6,21.249,0.371
	l45.202,46.825l45.202-46.825c5.76-5.971,15.278-6.141,21.249-0.371C327.992,9.981,328.162,19.498,322.391,25.469z"/>
<path style="fill:#596C76;" d="M322.391,25.469l-56.012,58.016c-0.06,0.06-0.13,0.12-0.19,0.18c-0.06,0.06-0.12,0.13-0.18,0.19
	c-0.13,0.13-0.27,0.24-0.411,0.361c-0.18,0.17-0.361,0.331-0.551,0.491c-0.21,0.16-0.411,0.311-0.621,0.461
	c-0.2,0.15-0.391,0.291-0.601,0.431c-0.21,0.14-0.441,0.27-0.661,0.401c-0.2,0.12-0.401,0.24-0.611,0.351
	c-0.24,0.13-0.481,0.23-0.721,0.341c-0.2,0.1-0.401,0.2-0.611,0.281c-0.26,0.1-0.521,0.19-0.791,0.281
	c-0.19,0.07-0.381,0.14-0.581,0.2c-0.291,0.09-0.581,0.15-0.882,0.22c-0.17,0.04-0.341,0.09-0.521,0.12
	c-0.341,0.07-0.681,0.11-1.022,0.16c-0.14,0.01-0.271,0.04-0.411,0.05c-0.481,0.05-0.962,0.07-1.443,0.07V51.416l45.202-46.825
	c5.76-5.971,15.278-6.141,21.249-0.371C327.992,9.981,328.162,19.498,322.391,25.469z"/>
<path style="fill:#DCE6EB;" d="M354.72,156.738H157.281c0-54.289,44.06-98.489,98.289-98.71c0.14-0.01,0.291-0.01,0.431-0.01
	C310.43,58.018,354.72,102.309,354.72,156.738z"/>
<path style="fill:#C8D2DC;" d="M354.72,156.738h-99.15v-98.71c0.14-0.01,0.291-0.01,0.431-0.01
	C310.43,58.018,354.72,102.309,354.72,156.738z"/>
<path style="fill:#7C8287;" d="M73.456,194.285l54.194,31.036c2.355,1.349,4.921,1.99,7.454,1.99c5.211,0,10.279-2.716,13.054-7.563
	c4.125-7.201,1.63-16.384-5.573-20.508l-54.193-31.035c-1.899-1.087-3.078-3.121-3.078-5.309v-59.817
	c0-8.299-6.728-15.027-15.027-15.027s-15.027,6.728-15.027,15.027v59.817C55.26,175.829,62.232,187.857,73.456,194.285z"/>
<g>
	<path style="fill:#596C76;" d="M377.458,227.31c2.532,0,5.099-0.642,7.454-1.99l54.194-31.036
		c11.223-6.428,18.195-18.456,18.195-31.389v-59.817c0-8.299-6.728-15.027-15.027-15.027s-15.027,6.728-15.027,15.027v59.817
		c0,2.188-1.179,4.222-3.077,5.309l-54.193,31.035c-7.202,4.125-9.698,13.306-5.573,20.508
		C367.179,224.595,372.246,227.31,377.458,227.31z"/>
	<path style="fill:#596C76;" d="M438.639,381.741l-54.193-31.035c-7.2-4.125-16.384-1.629-20.508,5.573
		c-4.125,7.202-1.63,16.384,5.573,20.508l54.193,31.035c1.899,1.087,3.078,3.122,3.078,5.31v83.841
		c0,8.299,6.728,15.027,15.027,15.027s15.027-6.728,15.027-15.027v-83.841C456.836,400.197,449.865,388.169,438.639,381.741z"/>
</g>
<g>
	<path style="fill:#7C8287;" d="M127.185,350.707l-54.194,31.035c-11.223,6.429-18.196,18.457-18.196,31.39v83.841
		c0,8.299,6.728,15.027,15.027,15.027s15.027-6.728,15.027-15.027v-83.841c0-2.188,1.18-4.223,3.078-5.31l54.193-31.035
		c7.202-4.125,9.698-13.306,5.573-20.508C143.569,349.077,134.386,346.582,127.185,350.707z"/>
	<path style="fill:#7C8287;" d="M127.667,261.572L27.392,318.815c-7.207,4.113-9.715,13.293-5.6,20.5
		c2.773,4.858,7.844,7.58,13.064,7.58c2.526,0,5.086-0.638,7.437-1.981l100.275-57.243c7.207-4.113,9.715-13.293,5.6-20.5
		C144.054,259.964,134.873,257.454,127.667,261.572z"/>
</g>
<path style="fill:#596C76;" d="M484.608,318.815l-100.275-57.243c-7.208-4.114-16.385-1.607-20.5,5.6
	c-4.116,7.207-1.607,16.386,5.6,20.5l100.275,57.243c2.351,1.342,4.91,1.981,7.437,1.981c5.219,0,10.291-2.723,13.064-7.58
	C494.322,332.107,491.816,322.928,484.608,318.815z"/>
<path style="fill:#FF5B5B;" d="M391.908,187.604v157.567c0,33.19-11.962,63.636-31.798,87.269
	c-21.91,26.108-53.447,43.89-89.082,47.817c-4.939,0.551-9.948,0.832-15.027,0.832c-5.079,0-10.088-0.281-15.027-0.832
	c-35.635-3.927-67.172-21.71-89.082-47.817c-19.836-23.633-31.798-54.078-31.798-87.269V187.604
	c0-25.086,20.407-45.493,45.493-45.493h180.829C371.501,142.111,391.908,162.518,391.908,187.604z"/>
<path style="fill:#FF193D;" d="M391.908,187.604v157.567c0,33.19-11.962,63.636-31.798,87.269
	c-21.91,26.108-53.447,43.89-89.082,47.817c-4.939,0.551-9.948,0.832-15.027,0.832V142.111h90.415
	C371.501,142.111,391.908,162.518,391.908,187.604z"/>
<path style="fill:#FFB64C;" d="M360.11,432.44c-22.661,26.999-55.611,45.092-92.759,48.178c-0.281,0.02-0.561,0.04-0.842,0.06
	c-0.952,0.07-1.914,0.14-2.875,0.2c-0.661,0.03-1.322,0.05-1.974,0.08c-0.611,0.03-1.212,0.06-1.813,0.08
	c-1.282,0.03-2.565,0.05-3.847,0.05c-1.282,0-2.565-0.02-3.847-0.05c-0.601-0.02-1.202-0.05-1.813-0.08
	c-0.651-0.03-1.312-0.05-1.974-0.08c-0.962-0.06-1.924-0.13-2.875-0.2c-0.281-0.02-0.561-0.04-0.842-0.06
	c-37.148-3.086-70.098-21.179-92.759-48.178l89.082-102.537V142.111h30.055v187.792L360.11,432.44z"/>
<path style="fill:#FF9F00;" d="M360.11,432.44c-22.661,26.999-55.611,45.092-92.759,48.178c-0.281,0.02-0.561,0.04-0.842,0.06
	c-0.952,0.07-1.914,0.14-2.875,0.2c-0.661,0.03-1.322,0.05-1.974,0.08c-0.611,0.03-1.212,0.06-1.813,0.08
	c-1.282,0.03-2.565,0.05-3.847,0.05V142.111h15.027v187.792L360.11,432.44z"/>
<g>
</g>
<g>
</g>
<g>
</g>
<g>
</g>
<g>
</g>
<g>
</g>
<g>
</g>
<g>
</g>
<g>
</g>
<g>
</g>
<g>
</g>
<g>
</g>
<g>
</g>
<g>
</g>
<g>
</g>
</svg>
